<svg width="30" height="30" viewBox="0 0 30 30" fill="none" xmlns="http://www.w3.org/2000/svg">
<path d="M0.496877 29.5079C0.723824 29.7224 0.982291 29.8675 1.27228 29.9432C1.56227 30.0189 1.85226 30.0189 2.14224 29.9432C2.43223 29.8675 2.68439 29.7224 2.89873 29.5079L15.0026 17.3943L27.1064 29.5079C27.3208 29.7224 27.5729 29.8675 27.8629 29.9432C28.1529 30.0189 28.4429 30.0189 28.7329 29.9432C29.0355 29.8801 29.2939 29.735 29.5083 29.5079C29.7226 29.2934 29.8613 29.041 29.9244 28.7508C30 28.4606 30 28.1703 29.9244 27.8801C29.8613 27.5899 29.7226 27.3375 29.5083 27.123L17.4044 14.9905L29.5083 2.87697C29.7226 2.66246 29.8676 2.41009 29.9433 2.11987C30.0189 1.82965 30.0189 1.53943 29.9433 1.24921C29.8676 0.958991 29.7226 0.706625 29.5083 0.492114C29.2813 0.264984 29.0229 0.119874 28.7329 0.0567823C28.4429 -0.0189274 28.1529 -0.0189274 27.8629 0.0567823C27.5729 0.119874 27.3208 0.264984 27.1064 0.492114L15.0026 12.6057L2.89873 0.492114C2.68439 0.264984 2.42593 0.119874 2.12333 0.0567823C1.83334 -0.0189274 1.54336 -0.0189274 1.25337 0.0567823C0.963379 0.119874 0.711216 0.264984 0.496877 0.492114C0.282538 0.706625 0.137544 0.958991 0.0618947 1.24921C-0.0011462 1.53943 -0.0011462 1.82965 0.0618947 2.11987C0.137544 2.41009 0.282538 2.66246 0.496877 2.87697L12.6007 14.9905L0.496877 27.123C0.282538 27.3375 0.137544 27.5899 0.0618947 27.8801C-0.0137544 28.1703 -0.0200585 28.4606 0.0429824 28.7508C0.118631 29.041 0.26993 29.2934 0.496877 29.5079Z" fill="black"/>
</svg>
