<svg width="32" height="32" viewBox="0 0 32 32" fill="none" xmlns="http://www.w3.org/2000/svg">
<path d="M6.33125 25.6719C6.48255 25.8149 6.65486 25.9117 6.84819 25.9621C7.04151 26.0126 7.23484 26.0126 7.42816 25.9621C7.62149 25.9117 7.7896 25.8149 7.93249 25.6719L16.0017 17.5962L24.0709 25.6719C24.2138 25.8149 24.382 25.9117 24.5753 25.9621C24.7686 26.0126 24.9619 26.0126 25.1553 25.9621C25.357 25.9201 25.5293 25.8233 25.6722 25.6719C25.8151 25.5289 25.9075 25.3607 25.9496 25.1672C26 24.9737 26 24.7802 25.9496 24.5868C25.9075 24.3933 25.8151 24.225 25.6722 24.082L17.603 15.9937L25.6722 7.91798C25.8151 7.77497 25.9117 7.60673 25.9622 7.41325C26.0126 7.21977 26.0126 7.02629 25.9622 6.83281C25.9117 6.63933 25.8151 6.47108 25.6722 6.32808C25.5209 6.17666 25.3486 6.07992 25.1553 6.03785C24.9619 5.98738 24.7686 5.98738 24.5753 6.03785C24.382 6.07992 24.2138 6.17666 24.0709 6.32808L16.0017 14.4038L7.93249 6.32808C7.7896 6.17666 7.61728 6.07992 7.41555 6.03785C7.22223 5.98738 7.0289 5.98738 6.83558 6.03785C6.64225 6.07992 6.47414 6.17666 6.33125 6.32808C6.18836 6.47108 6.0917 6.63933 6.04126 6.83281C5.99924 7.02629 5.99924 7.21977 6.04126 7.41325C6.0917 7.60673 6.18836 7.77497 6.33125 7.91798L14.4005 15.9937L6.33125 24.082C6.18836 24.225 6.0917 24.3933 6.04126 24.5868C5.99083 24.7802 5.98663 24.9737 6.02865 25.1672C6.07909 25.3607 6.17995 25.5289 6.33125 25.6719Z" fill="#333333"/>
</svg>
