<svg width="32" height="32" viewBox="0 0 32 32" fill="none" xmlns="http://www.w3.org/2000/svg">
<path d="M7.5 13.2986C7.5 14.5087 7.82871 15.7072 8.48614 16.8941C9.14938 18.0809 10.0773 19.2387 11.27 20.3674C12.4685 21.4961 13.8677 22.5753 15.4677 23.6051C15.5433 23.6574 15.6306 23.704 15.7295 23.7447C15.8342 23.7854 15.9244 23.8058 16 23.8058C16.0756 23.8058 16.1629 23.7854 16.2618 23.7447C16.3665 23.704 16.4567 23.6574 16.5323 23.6051C18.1323 22.5753 19.5286 21.4961 20.7213 20.3674C21.9139 19.2387 22.8419 18.0809 23.5051 16.8941C24.1684 15.7072 24.5 14.5087 24.5 13.2986C24.5 12.5481 24.3778 11.8616 24.1335 11.239C23.8949 10.6165 23.5604 10.0784 23.1299 9.62457C22.6993 9.16495 22.1903 8.81297 21.6027 8.56862C21.0209 8.31844 20.3838 8.19336 19.6915 8.19336C18.9061 8.19336 18.1875 8.38244 17.5359 8.76061C16.8843 9.13296 16.3723 9.63039 16 10.2529C15.6277 9.63039 15.1128 9.13296 14.4553 8.76061C13.8037 8.38244 13.0852 8.19336 12.2998 8.19336C11.6133 8.19336 10.9762 8.31844 10.3886 8.56862C9.80681 8.81297 9.29774 9.16495 8.8614 9.62457C8.43087 10.0784 8.09634 10.6165 7.8578 11.239C7.61927 11.8616 7.5 12.5481 7.5 13.2986ZM8.57341 13.2986C8.57341 12.4957 8.7334 11.7918 9.05339 11.1867C9.37337 10.5816 9.81263 10.1104 10.3711 9.77293C10.9355 9.43549 11.5755 9.26677 12.2911 9.26677C12.8263 9.26677 13.2976 9.36567 13.7048 9.56348C14.1179 9.75547 14.4728 10.0056 14.7695 10.314C15.0662 10.6165 15.3135 10.9365 15.5113 11.274C15.6102 11.4136 15.6946 11.5096 15.7644 11.5619C15.8342 11.6143 15.9127 11.6405 16 11.6405C16.0873 11.6405 16.1629 11.6143 16.2269 11.5619C16.2967 11.5096 16.3811 11.4136 16.48 11.274C16.6894 10.9423 16.9425 10.6223 17.2392 10.314C17.5359 10.0056 17.885 9.75547 18.2864 9.56348C18.6937 9.36567 19.1679 9.26677 19.7089 9.26677C20.4187 9.26677 21.0529 9.43549 21.6114 9.77293C22.1757 10.1104 22.6179 10.5816 22.9379 11.1867C23.2637 11.7918 23.4266 12.4957 23.4266 13.2986C23.4266 14.1131 23.2288 14.9363 22.8332 15.7683C22.4434 16.5945 21.911 17.409 21.2361 18.2118C20.5613 19.0147 19.7846 19.7885 18.9061 20.5332C18.0334 21.2721 17.117 21.9586 16.1571 22.5927C16.0756 22.6509 16.0233 22.68 16 22.68C15.9767 22.68 15.9273 22.6509 15.8516 22.5927C14.8859 21.9586 13.9666 21.2721 13.0939 20.5332C12.2213 19.7885 11.4446 19.0147 10.7639 18.2118C10.0832 17.409 9.54791 16.5945 9.15811 15.7683C8.76831 14.9363 8.57341 14.1131 8.57341 13.2986Z" fill="#FBA0E3"/>
<path d="M8.57341 13.2986C8.57341 12.4957 8.7334 11.7918 9.05339 11.1867C9.37337 10.5816 9.81263 10.1104 10.3711 9.77293C10.9355 9.43549 11.5755 9.26677 12.2911 9.26677C12.8263 9.26677 13.2976 9.36567 13.7048 9.56348C14.1179 9.75547 14.4728 10.0056 14.7695 10.314C15.0662 10.6165 15.3135 10.9365 15.5113 11.274C15.6102 11.4136 15.6946 11.5096 15.7644 11.5619C15.8342 11.6143 15.9127 11.6405 16 11.6405C16.0873 11.6405 16.1629 11.6143 16.2269 11.5619C16.2967 11.5096 16.3811 11.4136 16.48 11.274C16.6894 10.9423 16.9425 10.6223 17.2392 10.314C17.5359 10.0056 17.885 9.75547 18.2864 9.56348C18.6937 9.36567 19.1679 9.26677 19.7089 9.26677C20.4187 9.26677 21.0529 9.43549 21.6114 9.77293C22.1757 10.1104 22.6179 10.5816 22.9379 11.1867C23.2637 11.7918 23.4266 12.4957 23.4266 13.2986C23.4266 14.1131 23.2288 14.9363 22.8332 15.7683C22.4434 16.5945 21.911 17.409 21.2361 18.2118C20.5613 19.0147 19.7846 19.7885 18.9061 20.5332C18.0334 21.2721 17.117 21.9586 16.1571 22.5927C16.0756 22.6509 16.0233 22.68 16 22.68C15.9767 22.68 15.9273 22.6509 15.8516 22.5927C14.8859 21.9586 13.9666 21.2721 13.0939 20.5332C12.2213 19.7885 11.4446 19.0147 10.7639 18.2118C10.0832 17.409 9.54791 16.5945 9.15811 15.7683C8.76831 14.9363 8.57341 14.1131 8.57341 13.2986Z" fill="#FBA0E3"/>
</svg>
