<svg width="32" height="32" viewBox="0 0 32 32" fill="none" xmlns="http://www.w3.org/2000/svg">
<path d="M8.56765 15.1006L24.2176 15.1006C24.4251 15.1006 24.6241 15.1954 24.7709 15.3642C24.9176 15.5329 25.0001 15.7618 25.0001 16.0005C25.0001 16.2391 24.9176 16.468 24.7709 16.6368C24.6241 16.8056 24.4251 16.9004 24.2176 16.9004L8.56765 16.9004C8.36012 16.9004 8.16109 16.8056 8.01434 16.6368C7.8676 16.468 7.78516 16.2391 7.78516 16.0005C7.78516 15.7618 7.8676 15.5329 8.01434 15.3642C8.16109 15.1954 8.36012 15.1006 8.56765 15.1006Z" fill="#333333"/>
<path d="M8.89034 16L15.3803 23.4619C15.5273 23.6308 15.6098 23.86 15.6098 24.099C15.6098 24.3379 15.5273 24.5671 15.3803 24.7361C15.2334 24.9051 15.0341 25 14.8263 25C14.6186 25 14.4193 24.9051 14.2723 24.7361L7.22989 16.6371C7.15702 16.5535 7.0992 16.4542 7.05975 16.3449C7.02031 16.2356 7 16.1184 7 16C7 15.8816 7.02031 15.7644 7.05975 15.6551C7.0992 15.5458 7.15702 15.4465 7.22989 15.3629L14.2723 7.2639C14.4193 7.09493 14.6186 7 14.8263 7C15.0341 7 15.2334 7.09493 15.3803 7.2639C15.5273 7.43288 15.6098 7.66206 15.6098 7.90102C15.6098 8.13999 15.5273 8.36917 15.3803 8.53814L8.89034 16Z" fill="#333333"/>
</svg>
