<svg width="69" height="40" viewBox="0 0 69 40" fill="none" xmlns="http://www.w3.org/2000/svg">
<path d="M20 0.5H49C59.7696 0.5 68.5 9.23045 68.5 20C68.5 30.7696 59.7696 39.5 49 39.5H20C9.23045 39.5 0.5 30.7696 0.5 20C0.5 9.23045 9.23045 0.5 20 0.5Z" fill="white" stroke="#333333"/>
<path d="M42.4342 20.8994L26.7833 20.8994C26.5757 20.8994 26.3767 20.8046 26.2299 20.6358C26.0832 20.4671 26.0007 20.2382 26.0007 19.9995C26.0007 19.7609 26.0832 19.532 26.2299 19.3632C26.3767 19.1944 26.5757 19.0996 26.7833 19.0996L42.4342 19.0996C42.6418 19.0996 42.8408 19.1944 42.9876 19.3632C43.1343 19.532 43.2168 19.7609 43.2168 19.9995C43.2168 20.2382 43.1343 20.4671 42.9876 20.6358C42.8408 20.8046 42.6418 20.8994 42.4342 20.8994Z" fill="#333333"/>
<path d="M42.1115 20L35.621 12.5381C35.4741 12.3692 35.3915 12.14 35.3915 11.901C35.3915 11.6621 35.4741 11.4329 35.621 11.2639C35.768 11.0949 35.9673 11 36.1751 11C36.3829 11 36.5822 11.0949 36.7291 11.2639L43.7721 19.3629C43.8449 19.4465 43.9027 19.5458 43.9422 19.6551C43.9816 19.7644 44.002 19.8816 44.002 20C44.002 20.1184 43.9816 20.2356 43.9422 20.3449C43.9027 20.4542 43.8449 20.5535 43.7721 20.6371L36.7291 28.7361C36.5822 28.9051 36.3829 29 36.1751 29C35.9673 29 35.768 28.9051 35.621 28.7361C35.4741 28.5671 35.3915 28.3379 35.3915 28.099C35.3915 27.86 35.4741 27.6308 35.621 27.4619L42.1115 20Z" fill="#333333"/>
</svg>
