<svg width="48" height="48" viewBox="0 0 48 48" fill="none" xmlns="http://www.w3.org/2000/svg">
<rect width="48" height="48" rx="24" fill="#333333"/>
<path d="M9.41235 23.0883C9.4186 23.3103 9.4756 23.5132 9.58335 23.6971C9.6911 23.881 9.83691 24.0268 10.0208 24.1346C10.2047 24.2423 10.4044 24.2961 10.6201 24.296L22.7974 24.2912L22.7925 36.4684C22.7924 36.6841 22.8462 36.8838 22.954 37.0677C23.0617 37.2516 23.2075 37.3974 23.3914 37.5052C23.5753 37.6256 23.7782 37.6826 24.0002 37.6762C24.2158 37.6761 24.4125 37.6189 24.5901 37.5047C24.7741 37.3968 24.92 37.2509 25.0279 37.0669C25.1421 36.8893 25.1993 36.6926 25.1994 36.477L25.2138 24.2902L37.3911 24.2853C37.6067 24.2852 37.8065 24.2312 37.9905 24.1233C38.1744 24.0154 38.3204 23.8695 38.4283 23.6855C38.5362 23.5016 38.5902 23.3018 38.5902 23.0861C38.5903 22.8578 38.5333 22.6549 38.4192 22.4773C38.3115 22.2934 38.1657 22.1476 37.9818 22.0399C37.8043 21.9258 37.6045 21.872 37.3825 21.8784L25.2052 21.8833L25.2101 9.706C25.2166 9.48402 25.1596 9.28109 25.0391 9.09721C24.9314 8.91332 24.7856 8.76751 24.6017 8.65976C24.4241 8.54567 24.2244 8.49184 24.0024 8.49827C23.7868 8.49836 23.587 8.55235 23.403 8.66024C23.2253 8.77448 23.0794 8.92041 22.9652 9.09804C22.8573 9.28201 22.8033 9.48181 22.8032 9.69745L22.7983 21.8747L10.6115 21.8891C10.3959 21.8892 10.1961 21.9432 10.0121 22.0511C9.82815 22.159 9.67904 22.3018 9.56481 22.4794C9.45692 22.6634 9.4061 22.8663 9.41235 23.0883Z" fill="#FAFAFA"/>
</svg>
