<svg width="32" height="28" viewBox="0 0 32 28" fill="none" xmlns="http://www.w3.org/2000/svg">
<path fill-rule="evenodd" clip-rule="evenodd" d="M12.0288 22.8324L12.0173 22.8296L12.0059 22.827C11.6998 22.756 11.3865 22.7199 11.0721 22.7194L11.0698 22.7194C10.5442 22.719 10.0238 22.8203 9.53723 23.0174L9.53477 23.0184L7.39837 23.8805C7.55325 23.1618 7.51261 22.4138 7.27976 21.7152C7.04078 20.9983 6.60805 20.3596 6.02721 19.8721C3.66294 17.8568 2.5 15.3732 2.5 12.9082C2.5 7.64665 8.03247 2.5 16 2.5C23.9675 2.5 29.5 7.64665 29.5 12.9082C29.5 18.1679 23.9728 23.3125 16.0089 23.3164L16.0089 23.3096C14.6684 23.3077 13.3326 23.1476 12.0288 22.8324ZM3.87067 28L10.4747 25.335C10.6633 25.2585 10.8647 25.2192 11.068 25.2194C11.1936 25.2196 11.3189 25.234 11.4413 25.2624C12.9346 25.6234 14.4645 25.807 16 25.8096L16.0053 25.8096L16 25.8164H16.0053C24.8242 25.814 32 20.0237 32 12.9082C32 5.7912 24.82 0 16 0C7.18 0 0 5.7912 0 12.9082C0 16.2119 1.57067 19.3623 4.41467 21.7826C4.64287 21.9724 4.81378 22.223 4.90804 22.5058C5.0023 22.7885 5.01614 23.0923 4.948 23.3826L3.87067 28ZM9 15C10.1046 15 11 14.1046 11 13C11 11.8954 10.1046 11 9 11C7.89543 11 7 11.8954 7 13C7 14.1046 7.89543 15 9 15ZM16 15C17.1046 15 18 14.1046 18 13C18 11.8954 17.1046 11 16 11C14.8954 11 14 11.8954 14 13C14 14.1046 14.8954 15 16 15ZM25 13C25 14.1046 24.1046 15 23 15C21.8954 15 21 14.1046 21 13C21 11.8954 21.8954 11 23 11C24.1046 11 25 11.8954 25 13Z" fill="black"/>
</svg>
