<svg width="32" height="32" viewBox="0 0 32 32" fill="none" xmlns="http://www.w3.org/2000/svg">
<path fill-rule="evenodd" clip-rule="evenodd" d="M11.8218 23.7253C11.3151 23.9081 10.9025 23.9995 10.5838 23.9995C10.3488 23.9995 10.1686 23.9446 10.0432 23.8349C9.92308 23.7305 9.86301 23.5947 9.86301 23.4275C9.86823 23.2656 9.93614 23.101 10.0667 22.9339C10.1816 22.7929 10.3174 22.6153 10.4742 22.4011C10.6361 22.1869 10.7954 21.9597 10.9521 21.7194C11.114 21.4792 11.2551 21.2467 11.3752 21.0221C10.5499 20.6356 9.82905 20.1367 9.21268 19.5256C8.59632 18.9144 8.11576 18.2276 7.77101 17.4649C7.43148 16.7023 7.26172 15.8979 7.26172 15.0517C7.26172 14.0749 7.48633 13.1608 7.93555 12.3094C8.38476 11.4579 9.00897 10.711 9.80816 10.0685C10.6074 9.42078 11.5345 8.91411 12.5897 8.54846C13.65 8.18282 14.7887 8 16.0058 8C17.2229 8 18.359 8.18282 19.4141 8.54846C20.4745 8.91411 21.4043 9.42078 22.2035 10.0685C23.0026 10.711 23.6242 11.4579 24.0682 12.3094C24.5175 13.1608 24.7421 14.0749 24.7421 15.0517C24.7421 15.9031 24.5775 16.6997 24.2484 17.4414C23.9194 18.1832 23.4545 18.8518 22.8538 19.4472C22.2583 20.0427 21.5557 20.5468 20.7461 20.9594C19.9365 21.3669 19.0511 21.6672 18.09 21.8605C17.1289 22.0537 16.1259 22.1164 15.0813 22.0485C14.5641 22.3985 14.0183 22.7197 13.4437 23.0123C12.8743 23.31 12.3337 23.5477 11.8218 23.7253ZM11.0853 22.9887C11.0957 23.0096 11.1166 23.0149 11.148 23.0044C11.3778 22.9417 11.6756 22.8216 12.0412 22.644C12.4121 22.4664 12.8038 22.2601 13.2165 22.025C13.6291 21.79 14.0183 21.5523 14.3839 21.312C14.4988 21.2284 14.6138 21.1658 14.7287 21.124C14.8436 21.0822 14.9637 21.0639 15.0891 21.0691C15.2667 21.0796 15.4312 21.09 15.5827 21.1005C15.7342 21.1057 15.8752 21.1083 16.0058 21.1083C17.0818 21.1083 18.0874 20.9516 19.0224 20.6382C19.9626 20.3196 20.7853 19.8834 21.4905 19.3297C22.2008 18.776 22.7545 18.1335 23.1515 17.4022C23.5537 16.6657 23.7548 15.8822 23.7548 15.0517C23.7548 14.2107 23.5537 13.4272 23.1515 12.7011C22.7545 11.9698 22.2008 11.3274 21.4905 10.7737C20.7853 10.2148 19.9626 9.77859 19.0224 9.46518C18.0874 9.15177 17.0818 8.99507 16.0058 8.99507C14.9298 8.99507 13.9216 9.15177 12.9814 9.46518C12.0412 9.77859 11.2185 10.2148 10.5133 10.7737C9.80816 11.3274 9.25447 11.9698 8.85227 12.7011C8.45528 13.4272 8.25679 14.2107 8.25679 15.0517C8.25679 15.783 8.41349 16.4777 8.7269 17.1358C9.04031 17.794 9.48953 18.3921 10.0746 18.9301C10.6596 19.4681 11.3621 19.9278 12.1822 20.3091C12.3703 20.3979 12.48 20.5076 12.5113 20.6382C12.5479 20.7688 12.5244 20.915 12.4408 21.077C12.2945 21.3642 12.0856 21.6803 11.814 22.025C11.5476 22.375 11.3125 22.6753 11.1088 22.9261C11.0879 22.9522 11.0801 22.9731 11.0853 22.9887ZM13.0225 15.9875C12.8292 16.186 12.5889 16.2853 12.3016 16.2853C12.0196 16.2853 11.7767 16.186 11.573 15.9875C11.3745 15.7838 11.2752 15.5409 11.2752 15.2588C11.2752 14.9768 11.3745 14.7365 11.573 14.538C11.7767 14.3395 12.0196 14.2403 12.3016 14.2403C12.5889 14.2403 12.8292 14.3395 13.0225 14.538C13.221 14.7365 13.3202 14.9768 13.3202 15.2588C13.3202 15.5409 13.221 15.7838 13.0225 15.9875ZM16.6737 15.9875C16.4752 16.186 16.2349 16.2853 15.9528 16.2853C15.6655 16.2853 15.4227 16.186 15.2242 15.9875C15.0257 15.7838 14.9264 15.5409 14.9264 15.2588C14.9264 14.9768 15.0257 14.7365 15.2242 14.538C15.4227 14.3395 15.6655 14.2403 15.9528 14.2403C16.2349 14.2403 16.4752 14.3395 16.6737 14.538C16.8722 14.7365 16.9714 14.9768 16.9714 15.2588C16.9714 15.5409 16.8722 15.7838 16.6737 15.9875ZM20.3249 15.9875C20.1264 16.186 19.8861 16.2853 19.604 16.2853C19.322 16.2853 19.0791 16.186 18.8754 15.9875C18.6769 15.7838 18.5776 15.5409 18.5776 15.2588C18.5776 14.9768 18.6769 14.7365 18.8754 14.538C19.0791 14.3395 19.322 14.2403 19.604 14.2403C19.8861 14.2403 20.1264 14.3395 20.3249 14.538C20.5234 14.7365 20.6226 14.9768 20.6226 15.2588C20.6226 15.5409 20.5234 15.7838 20.3249 15.9875Z" fill="#333333"/>
</svg>
