<svg width="32" height="32" viewBox="0 0 32 32" fill="none" xmlns="http://www.w3.org/2000/svg">
<path d="M23.4323 16.8994L7.78131 16.8994C7.57376 16.8994 7.37472 16.8046 7.22796 16.6358C7.08121 16.4671 6.99876 16.2382 6.99876 15.9995C6.99876 15.7609 7.08121 15.532 7.22796 15.3632C7.37472 15.1944 7.57376 15.0996 7.78131 15.0996L23.4323 15.0996C23.6398 15.0996 23.8389 15.1944 23.9856 15.3632C24.1324 15.532 24.2148 15.7609 24.2148 15.9995C24.2148 16.2382 24.1324 16.4671 23.9856 16.6358C23.8389 16.8046 23.6398 16.8994 23.4323 16.8994Z" fill="#333333"/>
<path d="M23.1095 16L16.6191 8.53814C16.4721 8.36917 16.3896 8.13999 16.3896 7.90102C16.3896 7.66206 16.4721 7.43288 16.6191 7.2639C16.766 7.09493 16.9653 7 17.1731 7C17.3809 7 17.5802 7.09493 17.7272 7.2639L24.7701 15.3629C24.843 15.4465 24.9008 15.5458 24.9402 15.6551C24.9797 15.7644 25 15.8816 25 16C25 16.1184 24.9797 16.2356 24.9402 16.3449C24.9008 16.4542 24.843 16.5535 24.7701 16.6371L17.7272 24.7361C17.5802 24.9051 17.3809 25 17.1731 25C16.9653 25 16.766 24.9051 16.6191 24.7361C16.4721 24.5671 16.3896 24.3379 16.3896 24.099C16.3896 23.86 16.4721 23.6308 16.6191 23.4619L23.1095 16Z" fill="#333333"/>
</svg>
