<svg width="15" height="15" viewBox="0 0 15 15" fill="none" xmlns="http://www.w3.org/2000/svg">
<path d="M6.62314 7.5C6.62314 7.68648 6.70623 7.86532 6.85414 7.99718C7.00204 8.12905 7.20264 8.20312 7.41181 8.20312C7.62098 8.20312 7.82158 8.12905 7.96949 7.99718C8.11739 7.86532 8.20048 7.68648 8.20048 7.5C8.20048 7.31352 8.11739 7.13468 7.96949 7.00282C7.82158 6.87095 7.62098 6.79688 7.41181 6.79688C7.20264 6.79688 7.00204 6.87095 6.85414 7.00282C6.70623 7.13468 6.62314 7.31352 6.62314 7.5ZM9.90927 7.5C9.90927 7.68648 9.99236 7.86532 10.1403 7.99718C10.2882 8.12905 10.4888 8.20312 10.6979 8.20312C10.9071 8.20312 11.1077 8.12905 11.2556 7.99718C11.4035 7.86532 11.4866 7.68648 11.4866 7.5C11.4866 7.31352 11.4035 7.13468 11.2556 7.00282C11.1077 6.87095 10.9071 6.79688 10.6979 6.79688C10.4888 6.79688 10.2882 6.87095 10.1403 7.00282C9.99236 7.13468 9.90927 7.31352 9.90927 7.5ZM3.33701 7.5C3.33701 7.68648 3.4201 7.86532 3.568 7.99718C3.71591 8.12905 3.91651 8.20312 4.12568 8.20312C4.33485 8.20312 4.53545 8.12905 4.68335 7.99718C4.83126 7.86532 4.91435 7.68648 4.91435 7.5C4.91435 7.31352 4.83126 7.13468 4.68335 7.00282C4.53545 6.87095 4.33485 6.79688 4.12568 6.79688C3.91651 6.79688 3.71591 6.87095 3.568 7.00282C3.4201 7.13468 3.33701 7.31352 3.33701 7.5ZM14.201 4.95703C13.8296 4.17041 13.2973 3.46436 12.6187 2.85791C11.9448 2.25498 11.1449 1.77572 10.2642 1.44727C9.36049 1.10889 8.40094 0.9375 7.41181 0.9375H7.37895C6.38325 0.941895 5.41877 1.11768 4.5118 1.46338C3.6386 1.7952 2.84616 2.27531 2.17865 2.87695C1.50663 3.48193 0.979207 4.18506 0.614446 4.96875C0.236541 5.78027 0.0459453 6.64307 0.0508745 7.53076C0.0564498 8.54805 0.326403 9.55035 0.839546 10.459V12.6855C0.839546 12.8643 0.919176 13.0356 1.06092 13.162C1.20266 13.2884 1.3949 13.3594 1.59536 13.3594H4.09446C5.11365 13.8169 6.23789 14.0575 7.37895 14.0625H7.41345C8.39765 14.0625 9.35227 13.8926 10.251 13.5601C11.1273 13.2355 11.9243 12.7619 12.5973 12.1655C13.2759 11.5664 13.8099 10.8662 14.1829 10.0854C14.5707 9.27686 14.7678 8.41699 14.7727 7.5293C14.7777 6.63721 14.5838 5.77148 14.201 4.95703ZM11.7183 11.373C10.5665 12.3896 9.03845 12.9492 7.41181 12.9492H7.38388C6.39311 12.9448 5.40891 12.7251 4.53973 12.312L4.40171 12.2461H2.08828V10.1836L2.01434 10.0605C1.55099 9.28564 1.30453 8.4082 1.2996 7.5249C1.29303 6.06445 1.91904 4.69336 3.06754 3.66064C4.2144 2.62793 5.74739 2.05664 7.38552 2.05078H7.41345C8.23499 2.05078 9.03187 2.19287 9.78276 2.47412C10.5156 2.74805 11.1728 3.14209 11.738 3.646C12.3016 4.14844 12.7452 4.73584 13.0525 5.38916C13.3712 6.06592 13.5306 6.78369 13.5273 7.5249C13.5174 8.98389 12.875 10.3506 11.7183 11.373Z" fill="black"/>
</svg>
