<svg width="32" height="30" viewBox="0 0 32 30" fill="none" xmlns="http://www.w3.org/2000/svg">
<path d="M0 9.73213C0 12.0201 0.601544 14.2867 1.80463 16.5317C3.01846 18.766 4.73716 20.9466 6.96072 23.0735C9.18429 25.1897 11.8107 27.2145 14.8399 29.148C15.0117 29.2555 15.2051 29.3521 15.4199 29.4381C15.6455 29.5347 15.8389 29.5831 16 29.5831C16.1719 29.5831 16.3652 29.5347 16.5801 29.4381C16.8056 29.3521 17.0044 29.2555 17.1762 29.148C20.2054 27.2145 22.8265 25.1897 25.0393 23.0735C27.2628 20.9466 28.9762 18.766 30.1793 16.5317C31.3931 14.2867 32 12.0201 32 9.73213C32 8.30346 31.769 6.99832 31.3071 5.81672C30.856 4.62437 30.2169 3.59315 29.3897 2.72306C28.5733 1.85297 27.6066 1.1816 26.4894 0.708963C25.383 0.236321 24.1746 0 22.864 0C21.3709 0 20.0336 0.327627 18.852 0.98288C17.6811 1.63813 16.7304 2.50822 16 3.59315C15.2803 2.50822 14.3296 1.63813 13.148 0.98288C11.9664 0.327627 10.6291 0 9.13595 0C7.83619 0 6.62773 0.236321 5.51057 0.708963C4.40416 1.1816 3.4374 1.85297 2.61027 2.72306C1.78315 3.59315 1.13864 4.62437 0.676737 5.81672C0.225579 6.99832 0 8.30346 0 9.73213ZM2.59416 9.73213C2.59416 8.30346 2.87345 7.0574 3.43202 5.99396C4.00134 4.91977 4.77476 4.08728 5.75227 3.49648C6.74052 2.89493 7.85767 2.59416 9.10373 2.59416C10.1135 2.59416 10.9889 2.77677 11.7301 3.14199C12.4713 3.49648 13.0997 3.94226 13.6153 4.47936C14.1309 5.01645 14.5606 5.55354 14.9043 6.09063C15.1299 6.41289 15.3179 6.6331 15.4683 6.75126C15.6294 6.85868 15.8066 6.91239 16 6.91239C16.1934 6.91239 16.3652 6.85331 16.5156 6.73515C16.666 6.61699 16.8593 6.40215 17.0957 6.09063C17.4609 5.56428 17.9013 5.03256 18.4169 4.49547C18.9433 3.94763 19.5663 3.49648 20.286 3.14199C21.0164 2.77677 21.8865 2.59416 22.8963 2.59416C24.1423 2.59416 25.2541 2.89493 26.2316 3.49648C27.2199 4.08728 27.9933 4.91977 28.5519 5.99396C29.1212 7.0574 29.4058 8.30346 29.4058 9.73213C29.4058 11.2252 29.046 12.7398 28.3263 14.2759C27.6066 15.8013 26.6291 17.2998 25.3938 18.7714C24.1692 20.243 22.7727 21.6502 21.2044 22.993C19.6469 24.3249 18.0248 25.5495 16.3384 26.6667C16.1558 26.7956 16.043 26.86 16 26.86C15.957 26.86 15.8496 26.7956 15.6777 26.6667C13.9913 25.5495 12.3639 24.3249 10.7956 22.993C9.238 21.6502 7.84156 20.243 6.60624 18.7714C5.37093 17.2998 4.39342 15.8013 3.67372 14.2759C2.95401 12.7398 2.59416 11.2252 2.59416 9.73213Z" fill="black"/>
</svg>
