<svg width="18" height="16" viewBox="0 0 18 16" fill="none" xmlns="http://www.w3.org/2000/svg">
<path d="M0.5 5.2986C0.5 6.50873 0.828713 7.70722 1.48614 8.89408C2.14938 10.0809 3.07734 11.2387 4.27002 12.3674C5.46851 13.4961 6.86773 14.5753 8.46766 15.6051C8.54329 15.6574 8.63056 15.704 8.72947 15.7447C8.83419 15.7854 8.92437 15.8058 9 15.8058C9.07563 15.8058 9.1629 15.7854 9.26181 15.7447C9.36653 15.704 9.45671 15.6574 9.53234 15.6051C11.1323 14.5753 12.5286 13.4961 13.7213 12.3674C14.9139 11.2387 15.8419 10.0809 16.5051 8.89408C17.1684 7.70722 17.5 6.50873 17.5 5.2986C17.5 4.54808 17.3778 3.86157 17.1335 3.23905C16.8949 2.61653 16.5604 2.07837 16.1299 1.62457C15.6993 1.16495 15.1903 0.812969 14.6027 0.568616C14.0209 0.318445 13.3838 0.193359 12.6915 0.193359C11.9061 0.193359 11.1875 0.382442 10.5359 0.760608C9.88433 1.13296 9.37235 1.63039 9 2.25291C8.62765 1.63039 8.11276 1.13296 7.45534 0.760608C6.80373 0.382442 6.08522 0.193359 5.29979 0.193359C4.61328 0.193359 3.97621 0.318445 3.3886 0.568616C2.80681 0.812969 2.29774 1.16495 1.8614 1.62457C1.43087 2.07837 1.09634 2.61653 0.857803 3.23905C0.619268 3.86157 0.5 4.54808 0.5 5.2986ZM1.57341 5.2986C1.57341 4.49572 1.7334 3.79175 2.05339 3.18669C2.37337 2.58162 2.81263 2.11037 3.37115 1.77293C3.93549 1.43549 4.57546 1.26677 5.29107 1.26677C5.82632 1.26677 6.29757 1.36567 6.70483 1.56348C7.1179 1.75547 7.47279 2.00565 7.76951 2.314C8.06622 2.61653 8.31348 2.93651 8.51129 3.27395C8.6102 3.41359 8.69456 3.50958 8.76437 3.56194C8.83419 3.6143 8.91273 3.64048 9 3.64048C9.08727 3.64048 9.1629 3.6143 9.2269 3.56194C9.29671 3.50958 9.38107 3.41359 9.47998 3.27395C9.68942 2.94233 9.9425 2.62235 10.2392 2.314C10.5359 2.00565 10.885 1.75547 11.2864 1.56348C11.6937 1.36567 12.1679 1.26677 12.7089 1.26677C13.4187 1.26677 14.0529 1.43549 14.6114 1.77293C15.1757 2.11037 15.6179 2.58162 15.9379 3.18669C16.2637 3.79175 16.4266 4.49572 16.4266 5.2986C16.4266 6.11311 16.2288 6.93634 15.8332 7.76831C15.4434 8.59445 14.911 9.40897 14.2361 10.2118C13.5613 11.0147 12.7846 11.7885 11.9061 12.5332C11.0334 13.2721 10.117 13.9586 9.15708 14.5927C9.07563 14.6509 9.02327 14.68 9 14.68C8.97673 14.68 8.92728 14.6509 8.85164 14.5927C7.88587 13.9586 6.96663 13.2721 6.09394 12.5332C5.22125 11.7885 4.44456 11.0147 3.76386 10.2118C3.08316 9.40897 2.54791 8.59445 2.15811 7.76831C1.76831 6.93634 1.57341 6.11311 1.57341 5.2986Z" fill="#333333"/>
</svg>
